<svg id="Layer_1" data-name="Layer 1" xmlns="http://www.w3.org/2000/svg" viewBox="0 0 111.48 80.17">
  <defs>
    <style>
      .cls-1 {
        fill: #FB607F;
      }

      .cls-1, .cls-2 {
        stroke-width: 0px;
      }

      .cls-2 {
        fill: #FFFFFF;
      }
    </style>
  </defs>
  <path class="cls-1" d="M34.51,37.49l10.42-10.42-7.96-7.96c-1.95-1.95-5.12-1.95-7.07,0l-18.38,18.38c-1.95,1.95-1.95,5.12,0,7.07l18.38,18.38c1.95,1.95,5.12,1.95,7.07,0l7.96-7.96-10.42-10.42c-1.95-1.95-1.95-5.12,0-7.07Z"/>
  <path class="cls-2" d="M58.51,37.49l9.92-9.92-8.46-8.46c-1.95-1.95-5.12-1.95-7.07,0l-7.96,7.96,10.42,10.42c1.95,1.95,1.95,5.12,0,7.07l-10.42,10.42,7.96,7.96c1.95,1.95,5.12,1.95,7.07,0l8.46-8.46-9.92-9.92c-1.95-1.95-1.95-5.12,0-7.07Z"/>
  <path class="cls-1" d="M102.35,37.49l-18.38-18.38c-1.95-1.95-5.12-1.95-7.07,0l-8.46,8.46,9.92,9.92c1.95,1.95,1.95,5.12,0,7.07l-9.92,9.92,8.46,8.46c1.95,1.95,5.12,1.95,7.07,0l18.38-18.38c1.95-1.95,1.95-5.12,0-7.07Z"/>
</svg>